<svg id="レイヤー_1" data-name="レイヤー 1" xmlns="http://www.w3.org/2000/svg" viewBox="0 0 800.96 64.59"><defs><style>.cls-1{fill:#fff;}</style></defs><path class="cls-1" d="M6.46,51.67H0V19.38H6.46ZM19.38,19.38H6.46V12.92H19.38Zm6.46,38.75H6.46V51.67H25.84ZM19.38,19.38h6.46v6.46H19.38Z"/><path class="cls-1" d="M38.76,32.3H32.3V19.38h6.46ZM32.3,58.13V51.67H51.67v6.46ZM58.13,19.38H38.76V12.92H58.13ZM51.67,38.76H38.76V32.3H51.67Zm0,12.91V38.76h6.46V51.67Z"/><path class="cls-1" d="M71.05,32.3H64.59V19.38h6.46ZM64.59,58.13V51.67H84v6.46ZM90.43,19.38H71.05V12.92H90.43ZM84,38.76H71.05V32.3H84Zm0,12.91V38.76h6.46V51.67Z"/><path class="cls-1" d="M135.65,51.67h-6.46V19.38h6.46ZM155,19.38H135.65V12.92H155ZM142.11,38.76V32.3H155V58.13H135.65V51.67h12.92V38.76Z"/><path class="cls-1" d="M167.94,38.76V58.13h-6.46V25.84h6.46V32.3h6.46v6.46Zm19.38-6.46H174.4V25.84h12.92Z"/><path class="cls-1" d="M200.24,58.13V51.67h6.46V32.3h-6.46V25.84h12.92V51.67h6.46v6.46Zm6.46-45.21V6.46h6.46v6.46Z"/><path class="cls-1" d="M251.92,58.13H232.54V51.67h12.92V32.3H232.54V51.67h-6.46V32.3h6.46V25.84h12.92V12.92h6.46Z"/><path class="cls-1" d="M310.05,32.3V64.59h-6.46V6.46h6.46V25.84h6.46V32.3h12.92v6.46h12.92v6.46H329.43V38.76H316.51V32.3ZM323,12.92V6.46h6.46v6.46h6.46v6.46h-6.46V12.92Zm12.92-6.46V0h6.46V6.46h6.46v6.46h-6.46V6.46Z"/><path class="cls-1" d="M374.64,25.84V45.22h-6.46V25.84Zm0,38.75V58.13H394v6.46Zm12.92-38.75V45.22H381.1V25.84ZM394,58.13V51.67h6.46v6.46Zm6.46-6.46V25.84h6.46V51.67Z"/><path class="cls-1" d="M439.24,32.3V64.59h-6.46V6.46h6.46V25.84h6.46V32.3h12.92v6.46h12.91v6.46H458.62V38.76H445.7V32.3Z"/><path class="cls-1" d="M497.37,32.3V25.84H484.45V12.92h6.46v6.46h19.38v6.46h-6.46V32.3ZM484.45,45.22V38.76h6.46V32.3h6.46v6.46h45.22v6.46H523.21v6.45h-6.46v6.46h19.38V51.67h6.46V64.59h-32.3V51.67h6.46V45.22H503.83V64.59h-6.46V45.22Zm6.46,6.45V64.59h-6.46V51.67Zm0-38.75V6.46h6.46v6.46Zm19.38,6.46V12.92h6.46v6.46Zm32.3,12.92h-32.3V25.84h32.3Zm-6.46-19.38H516.75V6.46h19.38Zm0,0h6.46v6.46h-6.46Z"/><path class="cls-1" d="M555.51,64.59V58.13h12.91v6.46Zm12.91-38.75V19.38h6.46v6.46h6.46V32.3h12.92V45.22h6.46v6.45h6.46v6.46h-6.46V51.67h-6.46V45.22H587.8v6.45h-6.46v6.46H568.42V51.67h12.92V45.22h6.46V38.76h-6.46V32.3h-6.46V25.84Zm25.84,6.46V6.46h6.46V32.3Z"/><path class="cls-1" d="M620.1,32.3V25.84h6.46V32.3h45.21v6.46H626.56V32.3Z"/><path class="cls-1" d="M684.69,25.84V19.38h19.38V0h6.46V19.38h25.84V58.13h-6.46V25.84H710.53V45.22h-6.46V58.13h-6.46V45.22h6.46V25.84Zm0,38.75V58.13h12.92v6.46Zm32.3,0V58.13h12.92v6.46Z"/><path class="cls-1" d="M749.29,32.3V25.84h6.46V32.3H801v6.46H755.75V32.3Z"/></svg>